<?xml version="1.0" encoding="utf-8"?>
<!-- Generator: Adobe Illustrator 16.0.0, SVG Export Plug-In . SVG Version: 6.00 Build 0)  -->
<!DOCTYPE svg PUBLIC "-//W3C//DTD SVG 1.0//EN" "http://www.w3.org/TR/2001/REC-SVG-20010904/DTD/svg10.dtd">
<svg version="1.0" id="Layer_1" xmlns="http://www.w3.org/2000/svg" xmlns:xlink="http://www.w3.org/1999/xlink" x="0px" y="0px"
	 width="118px" height="34px" viewBox="0 0 118 34" enable-background="new 0 0 118 34" xml:space="preserve">
<g>
	<defs>
		<rect id="SVGID_1_" width="118" height="33.049"/>
	</defs>
	<clipPath id="SVGID_2_">
		<use xlink:href="#SVGID_1_"  overflow="visible"/>
	</clipPath>
	<path clip-path="url(#SVGID_2_)" fill="#167BC0" d="M2.335,30.098c0.32,0.164,0.812,0.328,1.32,0.328
		c0.547,0,0.836-0.227,0.836-0.57c0-0.328-0.25-0.516-0.883-0.742c-0.875-0.305-1.445-0.789-1.445-1.555
		c0-0.898,0.75-1.586,1.992-1.586c0.594,0,1.031,0.125,1.343,0.267l-0.266,0.96c-0.211-0.102-0.586-0.25-1.101-0.25
		c-0.516,0-0.765,0.235-0.765,0.508c0,0.336,0.296,0.484,0.976,0.742c0.929,0.344,1.367,0.828,1.367,1.569
		c0,0.884-0.68,1.642-2.125,1.642c-0.602,0-1.195-0.164-1.492-0.328L2.335,30.098z"/>
	<path clip-path="url(#SVGID_2_)" fill="#167BC0" d="M9.725,30.395c0,0.367,0.016,0.719,0.055,0.929h-1.07l-0.07-0.383H8.615
		c-0.25,0.306-0.64,0.47-1.093,0.47c-0.774,0-1.235-0.562-1.235-1.172c0-0.992,0.89-1.469,2.242-1.461v-0.055
		c0-0.203-0.11-0.492-0.695-0.492c-0.392,0-0.805,0.133-1.055,0.289l-0.219-0.766c0.266-0.148,0.789-0.336,1.484-0.336
		c1.273,0,1.679,0.75,1.679,1.648V30.395z M8.569,29.52c-0.625-0.008-1.11,0.141-1.11,0.602c0,0.305,0.203,0.453,0.469,0.453
		c0.297,0,0.539-0.195,0.618-0.438c0.016-0.062,0.023-0.133,0.023-0.203V29.52z"/>
	<path clip-path="url(#SVGID_2_)" fill="#167BC0" d="M11.451,27.504l0.516,1.773c0.093,0.321,0.164,0.625,0.218,0.93h0.023
		c0.063-0.312,0.125-0.602,0.211-0.93l0.492-1.773h1.25l-1.422,3.819h-1.187l-1.391-3.819H11.451z"/>
	<path clip-path="url(#SVGID_2_)" fill="#167BC0" d="M15.505,29.793c0.039,0.49,0.523,0.727,1.078,0.727
		c0.406,0,0.734-0.056,1.054-0.156l0.156,0.805c-0.391,0.155-0.867,0.242-1.383,0.242c-1.297,0-2.04-0.758-2.04-1.953
		c0-0.968,0.603-2.039,1.93-2.039c1.234,0,1.703,0.961,1.703,1.906c0,0.203-0.024,0.383-0.04,0.469H15.505z M16.904,28.98
		c0-0.289-0.125-0.773-0.672-0.773c-0.5,0-0.703,0.453-0.734,0.773H16.904z"/>
	<path clip-path="url(#SVGID_2_)" fill="#167BC0" d="M20.293,28.723c0-0.477-0.016-0.883-0.032-1.219h1l0.055,0.516h0.023
		c0.165-0.242,0.5-0.602,1.157-0.602c0.492,0,0.882,0.25,1.046,0.648h0.015c0.141-0.204,0.313-0.352,0.492-0.461
		c0.211-0.125,0.446-0.188,0.727-0.188c0.733,0,1.288,0.516,1.288,1.656v2.249H24.91v-2.077c0-0.554-0.18-0.875-0.562-0.875
		c-0.273,0-0.469,0.188-0.547,0.414c-0.031,0.086-0.047,0.211-0.047,0.305v2.233h-1.155v-2.141c0-0.483-0.172-0.812-0.547-0.812
		c-0.305,0-0.484,0.234-0.555,0.43c-0.04,0.093-0.047,0.203-0.047,0.297v2.226h-1.156V28.723z"/>
	<path clip-path="url(#SVGID_2_)" fill="#167BC0" d="M30.784,29.371c0,1.397-0.993,2.039-2.015,2.039
		c-1.117,0-1.977-0.734-1.977-1.969s0.813-2.023,2.039-2.023C30.002,27.418,30.784,28.223,30.784,29.371 M28.019,29.41
		c0,0.656,0.273,1.148,0.781,1.148c0.461,0,0.758-0.461,0.758-1.148c0-0.57-0.219-1.147-0.758-1.147
		C28.229,28.263,28.019,28.848,28.019,29.41"/>
	<path clip-path="url(#SVGID_2_)" fill="#167BC0" d="M31.518,28.723c0-0.477-0.015-0.883-0.031-1.219h1.031l0.055,0.523h0.023
		c0.157-0.243,0.547-0.609,1.18-0.609c0.782,0,1.368,0.516,1.368,1.641v2.265h-1.188v-2.116c0-0.492-0.171-0.828-0.601-0.828
		c-0.329,0-0.524,0.227-0.602,0.445c-0.032,0.078-0.047,0.188-0.047,0.297v2.202h-1.188V28.723z"/>
	<path clip-path="url(#SVGID_2_)" fill="#167BC0" d="M37.009,29.793c0.039,0.49,0.523,0.727,1.078,0.727
		c0.406,0,0.734-0.056,1.054-0.156l0.157,0.805c-0.392,0.155-0.868,0.242-1.383,0.242c-1.297,0-2.039-0.758-2.039-1.953
		c0-0.968,0.601-2.039,1.929-2.039c1.235,0,1.703,0.961,1.703,1.906c0,0.203-0.023,0.383-0.039,0.469H37.009z M38.407,28.98
		c0-0.289-0.125-0.773-0.671-0.773c-0.5,0-0.703,0.453-0.734,0.773H38.407z"/>
	<path clip-path="url(#SVGID_2_)" fill="#167BC0" d="M41.063,27.504l0.57,1.875c0.062,0.227,0.141,0.508,0.187,0.711h0.023
		c0.055-0.203,0.117-0.491,0.172-0.711l0.468-1.875h1.274l-0.891,2.516c-0.546,1.516-0.914,2.124-1.343,2.507
		c-0.415,0.359-0.852,0.484-1.149,0.522l-0.25-1.006c0.149-0.024,0.336-0.094,0.516-0.203c0.18-0.094,0.375-0.281,0.492-0.478
		c0.039-0.054,0.063-0.116,0.063-0.171c0-0.039-0.008-0.102-0.055-0.195l-1.398-3.492H41.063z"/>
	<path clip-path="url(#SVGID_2_)" fill="#167BC0" d="M44.857,31.41c-0.399,0-0.688-0.305-0.688-0.72
		c0-0.421,0.289-0.726,0.703-0.726c0.415,0,0.695,0.297,0.695,0.726c0,0.415-0.281,0.72-0.703,0.72H44.857z"/>
	<polygon clip-path="url(#SVGID_2_)" fill="#167BC0" points="48.219,26.059 49.414,26.059 49.414,30.324 51.507,30.324 
		51.507,31.323 48.219,31.323 	"/>
	<path clip-path="url(#SVGID_2_)" fill="#167BC0" d="M53.554,26.441c0,0.329-0.25,0.595-0.641,0.595
		c-0.375,0-0.625-0.266-0.617-0.595c-0.008-0.344,0.241-0.6,0.625-0.6C53.304,25.842,53.546,26.098,53.554,26.441 M52.327,31.323
		v-3.819h1.188v2.886v0.934H52.327z"/>
	<path clip-path="url(#SVGID_2_)" fill="#167BC0" d="M55.507,27.504l0.515,1.773c0.093,0.321,0.164,0.625,0.219,0.93h0.023
		c0.062-0.312,0.126-0.602,0.212-0.93l0.492-1.773h1.25l-1.422,3.819h-1.188l-1.39-3.819H55.507z"/>
	<path clip-path="url(#SVGID_2_)" fill="#167BC0" d="M59.561,29.793c0.04,0.49,0.524,0.727,1.078,0.727
		c0.406,0,0.734-0.056,1.055-0.156l0.156,0.805c-0.391,0.155-0.867,0.242-1.382,0.242c-1.297,0-2.04-0.758-2.04-1.953
		c0-0.968,0.603-2.039,1.93-2.039c1.234,0,1.703,0.961,1.703,1.906c0,0.203-0.023,0.383-0.041,0.469H59.561z M60.96,28.98
		c0-0.289-0.125-0.773-0.673-0.773c-0.5,0-0.703,0.453-0.733,0.773H60.96z"/>
	<path clip-path="url(#SVGID_2_)" fill="#167BC0" d="M64.35,25.778h1.187v2.179h0.017c0.227-0.329,0.625-0.539,1.156-0.539
		c0.913,0,1.586,0.758,1.576,1.93c0,1.375-0.873,2.062-1.748,2.062c-0.445,0-0.876-0.164-1.148-0.617h-0.016l-0.048,0.53h-1.007
		c0.015-0.249,0.031-0.71,0.031-1.14V25.778z M65.536,29.699c0,0.078,0.009,0.148,0.023,0.211c0.077,0.319,0.352,0.562,0.696,0.562
		c0.508,0,0.82-0.39,0.82-1.077c0-0.594-0.266-1.062-0.82-1.062c-0.321,0-0.619,0.242-0.696,0.586
		c-0.015,0.07-0.023,0.141-0.023,0.22V29.699z"/>
	<path clip-path="url(#SVGID_2_)" fill="#167BC0" d="M69.959,29.793c0.039,0.49,0.522,0.727,1.076,0.727
		c0.407,0,0.734-0.056,1.055-0.156l0.157,0.805c-0.391,0.155-0.868,0.242-1.384,0.242c-1.297,0-2.038-0.758-2.038-1.953
		c0-0.968,0.602-2.039,1.931-2.039c1.233,0,1.701,0.961,1.701,1.906c0,0.203-0.023,0.383-0.038,0.469H69.959z M71.355,28.98
		c0-0.289-0.126-0.773-0.67-0.773c-0.5,0-0.703,0.453-0.735,0.773H71.355z"/>
	<path clip-path="url(#SVGID_2_)" fill="#167BC0" d="M74.652,26.465v1.039h0.853v0.875h-0.853v1.383
		c0,0.461,0.109,0.672,0.469,0.672c0.164,0,0.235-0.008,0.352-0.032l0.008,0.899c-0.156,0.061-0.438,0.109-0.774,0.109
		c-0.382,0-0.702-0.141-0.89-0.336c-0.219-0.227-0.328-0.594-0.328-1.133v-1.562H72.98v-0.875h0.508v-0.719L74.652,26.465z"/>
	<path clip-path="url(#SVGID_2_)" fill="#167BC0" d="M77.676,26.465v1.039h0.85v0.875h-0.85v1.383c0,0.461,0.109,0.672,0.467,0.672
		c0.164,0,0.235-0.008,0.354-0.032l0.006,0.899c-0.155,0.061-0.436,0.109-0.771,0.109c-0.383,0-0.704-0.141-0.891-0.336
		c-0.219-0.227-0.328-0.594-0.328-1.133v-1.562h-0.509v-0.875h0.509v-0.719L77.676,26.465z"/>
	<path clip-path="url(#SVGID_2_)" fill="#167BC0" d="M80.283,29.793c0.039,0.49,0.523,0.727,1.08,0.727
		c0.405,0,0.732-0.056,1.053-0.156l0.156,0.805c-0.391,0.155-0.865,0.242-1.382,0.242c-1.296,0-2.038-0.758-2.038-1.953
		c0-0.968,0.602-2.039,1.93-2.039c1.232,0,1.702,0.961,1.702,1.906c0,0.203-0.023,0.383-0.04,0.469H80.283z M81.683,28.98
		c0-0.289-0.125-0.773-0.671-0.773c-0.501,0-0.704,0.453-0.736,0.773H81.683z"/>
	<path clip-path="url(#SVGID_2_)" fill="#167BC0" d="M83.65,28.762c0-0.562-0.016-0.93-0.03-1.258h1.024l0.038,0.703h0.031
		c0.194-0.555,0.663-0.789,1.03-0.789c0.109,0,0.164,0,0.25,0.016v1.125c-0.086-0.024-0.188-0.039-0.32-0.039
		c-0.438,0-0.733,0.234-0.812,0.602c-0.016,0.079-0.022,0.172-0.022,0.266v1.937H83.65V28.762z"/>
	<path clip-path="url(#SVGID_2_)" fill="#167BC0" d="M87.217,31.41c-0.398,0-0.687-0.305-0.687-0.72
		c0-0.421,0.288-0.726,0.702-0.726c0.413,0,0.694,0.297,0.694,0.726c0,0.415-0.281,0.72-0.702,0.72H87.217z"/>
	<path clip-path="url(#SVGID_2_)" fill="#FFC222" d="M104,9.474c0.659,0,1.201-0.342,1.275-0.786l0.651-7.363
		c0-0.728-0.853-1.326-1.925-1.326c-1.071,0-1.922,0.598-1.922,1.326l0.65,7.363c0.071,0.443,0.615,0.786,1.271,0.786H104z"/>
	<path clip-path="url(#SVGID_2_)" fill="#FFC222" d="M100.02,11.774c0.331-0.57,0.306-1.212-0.043-1.496l-6.051-4.245
		c-0.629-0.364-1.573,0.074-2.109,1.003C91.279,7.963,91.375,9,92.004,9.363l6.699,3.12c0.42,0.156,0.99-0.143,1.319-0.713
		L100.02,11.774z"/>
	<path clip-path="url(#SVGID_2_)" fill="#FFC222" d="M107.982,11.771c0.33,0.57,0.898,0.869,1.317,0.712l6.701-3.12
		c0.632-0.363,0.722-1.4,0.188-2.327c-0.538-0.929-1.482-1.367-2.11-1.003l-6.052,4.245c-0.347,0.285-0.372,0.926-0.043,1.497
		L107.982,11.771z"/>
	<path clip-path="url(#SVGID_2_)" fill="#FFC222" d="M104,18.67c0.659,0,1.201,0.342,1.275,0.785l0.651,7.361
		c0,0.729-0.853,1.326-1.925,1.326c-1.071,0-1.922-0.597-1.922-1.326l0.65-7.361c0.071-0.443,0.615-0.785,1.271-0.785H104z"/>
	<path clip-path="url(#SVGID_2_)" fill="#FFC222" d="M107.982,16.371c0.33-0.571,0.898-0.868,1.317-0.71l6.701,3.116
		c0.632,0.365,0.722,1.402,0.188,2.33c-0.538,0.926-1.482,1.365-2.11,1.003l-6.052-4.241c-0.347-0.289-0.372-0.93-0.043-1.499
		L107.982,16.371z"/>
	<path clip-path="url(#SVGID_2_)" fill="#FFC222" d="M100.02,16.37c0.331,0.57,0.306,1.211-0.043,1.499l-6.051,4.241
		c-0.629,0.363-1.573-0.076-2.109-1.002c-0.537-0.928-0.441-1.965,0.188-2.33l6.699-3.116c0.42-0.158,0.99,0.139,1.32,0.71
		L100.02,16.37z"/>
	<path clip-path="url(#SVGID_2_)" fill="#167BC0" d="M69.141,14.918c0-2.78-1.188-5.226-5.201-5.226
		c-2.061,0-3.696,0.579-4.588,1.094l0.653,2.234c0.816-0.514,2.116-0.941,3.346-0.941c2.036-0.005,2.37,1.152,2.37,1.895v0.176
		c-4.438-0.006-7.243,1.529-7.243,4.661c0,1.912,1.428,3.703,3.912,3.703c1.526,0,2.805-0.609,3.568-1.586h0.076
		c0,0,0.507,2.121,3.301,1.31c-0.146-0.883-0.193-1.823-0.193-2.956V14.918z M65.826,17.854c0,0.227-0.02,0.46-0.082,0.664
		c-0.256,0.851-1.137,1.568-2.238,1.568c-0.918,0-1.646-0.521-1.646-1.623c0-1.685,1.855-2.151,3.967-2.14V17.854z"/>
	<path clip-path="url(#SVGID_2_)" fill="#167BC0" d="M0,5.906c0,0,2.899,11.882,3.362,13.811c0.54,2.251,1.513,3.079,4.319,2.521
		l1.811-7.368c0.459-1.83,0.767-3.134,1.062-4.995h0.051c0.208,1.88,0.503,3.171,0.88,5.002c0,0,0.737,3.344,1.115,5.101
		c0.378,1.756,1.431,2.862,4.18,2.26l4.314-16.332h-3.483l-1.473,7.061c-0.396,2.056-0.755,3.661-1.032,5.542h-0.049
		c-0.252-1.862-0.572-3.404-0.975-5.406l-1.533-7.196H8.919l-1.64,7.015c-0.465,2.131-0.9,3.853-1.176,5.669h-0.05
		c-0.283-1.711-0.66-3.874-1.068-5.937c0,0-0.975-5.018-1.317-6.747H0z"/>
	<path clip-path="url(#SVGID_2_)" fill="#167BC0" d="M30.994,14.918c0-2.78-1.188-5.226-5.2-5.226c-2.061,0-3.697,0.579-4.589,1.094
		l0.653,2.234c0.816-0.514,2.116-0.941,3.346-0.941c2.037-0.005,2.371,1.152,2.371,1.895v0.176
		c-4.439-0.006-7.243,1.529-7.243,4.661c0,1.912,1.427,3.703,3.91,3.703c1.528,0,2.805-0.609,3.571-1.586h0.075
		c0,0,0.507,2.121,3.301,1.31c-0.146-0.883-0.194-1.823-0.194-2.956V14.918z M27.681,17.854c0,0.227-0.02,0.46-0.082,0.664
		c-0.257,0.851-1.137,1.568-2.238,1.568c-0.917,0-1.646-0.521-1.646-1.623c0-1.685,1.855-2.151,3.967-2.14V17.854z"/>
	<polygon clip-path="url(#SVGID_2_)" fill="#167BC0" points="36.522,18.77 36.522,5.906 33.206,5.906 33.206,22.237 36.522,22.237 	
		"/>
	<path clip-path="url(#SVGID_2_)" fill="#167BC0" d="M79.912,5.906v12.048c0,1.661,0.312,2.825,0.982,3.536
		c0.584,0.622,1.547,1.024,2.699,1.024c0.98,0,1.945-0.186,2.4-0.355l-0.043-2.592c-0.338,0.084-0.728,0.15-1.26,0.15
		c-1.129,0-1.508-0.725-1.508-2.215v-4.609h2.888V9.768h-2.888V5.906H79.912z"/>
	<path clip-path="url(#SVGID_2_)" fill="#167BC0" d="M71.352,9.969v12.269h3.422v-6.282c0-0.339,0.02-0.634,0.073-0.905
		c0.253-1.316,1.26-2.157,2.704-2.157c0.396,0,0.681,0.042,0.988,0.087V9.768c-0.258-0.052-0.434-0.076-0.754-0.076
		c-1.277,0-2.73,0.824-3.339,2.591h-0.093V9.969H71.352z"/>
	<path clip-path="url(#SVGID_2_)" fill="#167BC0" d="M38.845,9.969v12.269h3.334v-7.195c0-0.337,0.038-0.693,0.156-1.004
		c0.276-0.724,0.95-1.572,2.026-1.572c1.345,0,1.975,1.137,1.975,2.779v6.992h3.331v-7.282c0-0.322,0.044-0.709,0.139-0.994
		c0.274-0.824,1-1.495,2-1.495c1.364,0,2.019,1.117,2.019,3.049v6.722h3.333v-7.226c0-3.811-1.935-5.319-4.12-5.319
		c-0.967,0-1.731,0.242-2.421,0.666c-0.581,0.356-1.1,0.862-1.554,1.528h-0.049c-0.527-1.322-1.766-2.194-3.381-2.194
		c-2.075,0-3.007,1.052-3.573,1.944H42.01V9.969H38.845z"/>
	<path clip-path="url(#SVGID_2_)" fill="#FFC222" d="M117.42,21.491c0.326,0,0.58,0.254,0.58,0.57c0,0.323-0.254,0.574-0.584,0.574
		c-0.326,0-0.587-0.251-0.587-0.574c0-0.316,0.261-0.57,0.587-0.57H117.42z M117.412,21.606c-0.25,0-0.438,0.205-0.438,0.455
		c0,0.254,0.188,0.456,0.445,0.456c0.25,0.004,0.435-0.202,0.435-0.456c0-0.25-0.185-0.455-0.438-0.455H117.412z M117.326,22.357
		h-0.133v-0.566c0.053-0.012,0.125-0.021,0.219-0.021c0.108,0,0.157,0.018,0.199,0.046c0.031,0.023,0.055,0.069,0.055,0.121
		c0,0.065-0.048,0.114-0.117,0.136v0.006c0.055,0.019,0.086,0.063,0.104,0.141c0.018,0.086,0.028,0.121,0.042,0.139h-0.143
		c-0.017-0.021-0.028-0.07-0.046-0.136c-0.01-0.062-0.045-0.091-0.117-0.091h-0.062V22.357z M117.33,22.037h0.062
		c0.073,0,0.132-0.024,0.132-0.084c0-0.051-0.037-0.086-0.121-0.086c-0.035,0-0.059,0.003-0.072,0.007V22.037z"/>
</g>
</svg>
