<?xml version="1.0" encoding="utf-8"?>
<!-- Generator: Adobe Illustrator 16.0.0, SVG Export Plug-In . SVG Version: 6.00 Build 0)  -->
<!DOCTYPE svg PUBLIC "-//W3C//DTD SVG 1.0//EN" "http://www.w3.org/TR/2001/REC-SVG-20010904/DTD/svg10.dtd">
<svg version="1.0" id="Layer_1" xmlns="http://www.w3.org/2000/svg" xmlns:xlink="http://www.w3.org/1999/xlink" x="0px" y="0px"
	 viewBox="0 0 28 24" preserveAspectRatio="xMinYMin meet" enable-background="new 0 0 28 24" xml:space="preserve">
<g>
	<defs>
		<rect id="SVGID_1_" width="28" height="23.171"/>
	</defs>
	<clipPath id="SVGID_2_">
		<use xlink:href="#SVGID_1_"  overflow="visible"/>
	</clipPath>
	<path clip-path="url(#SVGID_2_)" fill="#EE1F35" d="M21.51,0c1.747,0,3.168,1.454,3.168,3.24v5.957h0.49h0.002h0.002
		c1.225,0.002,2.305,0.803,2.688,1.992l0.001,0.003l0.001,0.003v0.002C27.953,11.485,28,11.786,28,12.09
		c-0.002,0.927-0.442,1.802-1.18,2.343l-11.168,8.195c-0.484,0.354-1.055,0.541-1.65,0.542H14h-0.001
		c-0.594-0.001-1.164-0.188-1.647-0.54l-0.004-0.004L1.178,14.432C0.441,13.891,0.001,13.015,0,12.087
		c0-0.303,0.047-0.604,0.139-0.892L0.14,11.19C0.521,10,1.602,9.199,2.829,9.196h0.003h0.49V3.24C3.322,1.454,4.743,0,6.49,0H21.51z
		"/>
	<path clip-path="url(#SVGID_2_)" fill="#FFC224" d="M21.51,1.036c1.189,0,2.156,0.989,2.156,2.204v6.992h1.502h0.001h0.001
		c0.787,0.001,1.482,0.516,1.728,1.279l0.001,0.002v0.002c0.059,0.186,0.089,0.379,0.089,0.574
		c-0.001,0.595-0.284,1.156-0.757,1.503l-11.168,8.195c-0.312,0.228-0.678,0.348-1.061,0.349H14H14
		c-0.382-0.001-0.749-0.121-1.061-0.349l0-0.001l0-0.001L1.769,13.592c-0.473-0.348-0.756-0.91-0.757-1.504
		c0-0.194,0.03-0.387,0.089-0.573v-0.001l0-0.001c0.245-0.765,0.939-1.28,1.729-1.281h0h0.001h1.502V3.24
		c0-1.215,0.967-2.204,2.156-2.204H21.51z M21.51,2.01H6.49c-0.665,0-1.203,0.551-1.203,1.23v7.966H2.832
		c-0.378,0.001-0.708,0.244-0.824,0.609c-0.029,0.091-0.042,0.182-0.042,0.272c0,0.277,0.128,0.542,0.36,0.713l11.167,8.194
		c0.153,0.111,0.33,0.167,0.508,0.167s0.355-0.056,0.507-0.167L25.675,12.8c0.231-0.169,0.359-0.435,0.36-0.712
		c0-0.09-0.014-0.182-0.043-0.272c-0.117-0.366-0.445-0.608-0.824-0.609h-2.455V3.24C22.713,2.561,22.174,2.01,21.51,2.01"/>
	<path clip-path="url(#SVGID_2_)" fill="#FFC224" d="M14.038,8.628c0.283,0,0.516-0.146,0.547-0.337l0.28-3.157
		c0-0.312-0.366-0.568-0.826-0.568c-0.459,0-0.824,0.256-0.824,0.568l0.279,3.157C13.525,8.481,13.758,8.628,14.038,8.628
		L14.038,8.628z"/>
	<path clip-path="url(#SVGID_2_)" fill="#FFC224" d="M12.332,9.614c0.142-0.245,0.131-0.52-0.019-0.642l-2.595-1.82
		c-0.27-0.156-0.674,0.032-0.904,0.43c-0.23,0.397-0.189,0.842,0.08,0.998l2.873,1.338c0.18,0.067,0.424-0.062,0.565-0.306
		L12.332,9.614z"/>
	<path clip-path="url(#SVGID_2_)" fill="#FFC224" d="M15.746,9.613c0.141,0.244,0.385,0.373,0.564,0.305l2.873-1.337
		c0.271-0.156,0.31-0.6,0.081-0.998c-0.23-0.398-0.636-0.586-0.905-0.43l-2.594,1.82c-0.148,0.122-0.16,0.397-0.019,0.642
		L15.746,9.613z"/>
	<path clip-path="url(#SVGID_2_)" fill="#FFC224" d="M14.038,12.571c0.283,0,0.516,0.146,0.547,0.336l0.28,3.157
		c0,0.312-0.366,0.568-0.826,0.568c-0.459,0-0.824-0.256-0.824-0.568l0.279-3.157C13.525,12.717,13.758,12.571,14.038,12.571
		L14.038,12.571z"/>
	<path clip-path="url(#SVGID_2_)" fill="#FFC224" d="M15.746,11.585c0.141-0.245,0.385-0.372,0.564-0.305l2.873,1.336
		c0.271,0.156,0.31,0.602,0.081,0.999c-0.23,0.396-0.636,0.585-0.905,0.43l-2.594-1.818C15.617,12.104,15.605,11.829,15.746,11.585
		L15.746,11.585z"/>
	<path clip-path="url(#SVGID_2_)" fill="#FFC224" d="M12.332,11.585c0.142,0.244,0.131,0.519-0.019,0.643l-2.595,1.818
		c-0.27,0.155-0.674-0.033-0.904-0.43c-0.23-0.397-0.189-0.843,0.08-0.999l2.873-1.336C11.948,11.213,12.192,11.34,12.332,11.585
		L12.332,11.585z"/>
</g>
</svg>
