<?xml version="1.0" encoding="iso-8859-1"?>
<!-- Generator: Adobe Illustrator 16.0.0, SVG Export Plug-In . SVG Version: 6.00 Build 0)  -->
<!DOCTYPE svg PUBLIC "-//W3C//DTD SVG 1.1//EN" "http://www.w3.org/Graphics/SVG/1.1/DTD/svg11.dtd">
<svg version="1.1" id="Layer_1" xmlns="http://www.w3.org/2000/svg" xmlns:xlink="http://www.w3.org/1999/xlink" x="0px" y="0px"
	 width="40px" height="40px" viewBox="0 0 40 40" style="enable-background:new 0 0 40 40;" xml:space="preserve">
<path style="fill:#FFFFFF;" d="M22.271,14c0.019,0,0.045,0,0.079,0c0.175,0,0.324,0.069,0.446,0.21c0,0.017,0.018,0.035,0.053,0.052
	c0.034,0.017,0.078,0.062,0.132,0.131v0.026c0.017,0.07,0.026,0.149,0.026,0.237c0,0.174-0.053,0.324-0.158,0.446
	c-0.053,0.035-0.096,0.087-0.131,0.157l-0.054,0.026l-0.025,0.053l-3.702,4.229c-0.105,0.122-0.157,0.262-0.157,0.42
	c0,0.157,0.052,0.297,0.157,0.42l3.702,4.28l0.157,0.158c0.036,0.017,0.07,0.053,0.104,0.104c0.07,0.088,0.106,0.21,0.106,0.368
	c0,0.175-0.071,0.341-0.211,0.499v0.026C22.655,25.947,22.49,26,22.298,26c-0.176,0-0.324-0.062-0.446-0.184l-0.105-0.105
	l-4.517-5.199l-0.053-0.026c-0.069-0.07-0.113-0.148-0.131-0.236c-0.018-0.017-0.026-0.035-0.026-0.052
	c-0.017-0.053-0.026-0.096-0.026-0.131c0-0.053,0-0.088,0-0.105c0-0.158,0.061-0.289,0.184-0.394c0-0.035,0.018-0.062,0.053-0.079
	l4.517-5.2l0.132-0.078C21.982,14.07,22.114,14,22.271,14z"/>
</svg>
