<?xml version="1.0" encoding="iso-8859-1"?>
<!-- Generator: Adobe Illustrator 16.0.0, SVG Export Plug-In . SVG Version: 6.00 Build 0)  -->
<!DOCTYPE svg PUBLIC "-//W3C//DTD SVG 1.1//EN" "http://www.w3.org/Graphics/SVG/1.1/DTD/svg11.dtd">
<svg version="1.1" id="Layer_1" xmlns="http://www.w3.org/2000/svg" xmlns:xlink="http://www.w3.org/1999/xlink" x="0px" y="0px"
	 width="40px" height="40px" viewBox="0 0 40 40" style="enable-background:new 0 0 40 40;" xml:space="preserve">
<path style="fill:#FFFFFF;" d="M21.064,20.406c0.104-0.122,0.157-0.262,0.157-0.419c0-0.158-0.053-0.298-0.157-0.42l-3.703-4.228
	l-0.025-0.053l-0.054-0.026c-0.035-0.07-0.078-0.122-0.132-0.157c-0.104-0.122-0.157-0.272-0.157-0.446
	c0-0.088,0.009-0.167,0.026-0.237v-0.026c0.053-0.069,0.096-0.114,0.131-0.131s0.054-0.035,0.054-0.052
	C17.326,14.069,17.475,14,17.65,14c0.034,0,0.061,0,0.079,0c0.157,0,0.289,0.069,0.394,0.21l0.131,0.078l4.517,5.2
	c0.035,0.017,0.053,0.044,0.053,0.079c0.122,0.105,0.184,0.236,0.184,0.394c0,0.017,0,0.052,0,0.105
	c0,0.035-0.009,0.078-0.026,0.131c0,0.017-0.009,0.035-0.025,0.052c-0.019,0.088-0.062,0.166-0.132,0.236l-0.053,0.026l-4.517,5.199
	l-0.104,0.105C18.026,25.938,17.878,26,17.703,26c-0.193,0-0.358-0.053-0.499-0.157v-0.026c-0.141-0.158-0.211-0.324-0.211-0.498
	c0-0.158,0.035-0.281,0.105-0.368c0.035-0.054,0.07-0.089,0.105-0.106l0.157-0.156L21.064,20.406z"/>
</svg>
